<svg id="svg" version="1.1" xmlns="http://www.w3.org/2000/svg" xmlns:xlink="http://www.w3.org/1999/xlink" width="400" height="400" viewBox="0, 0, 400,400"><g id="svgg"><path id="path0" d="M187.798 72.163 C 184.241 73.065,181.272 75.997,180.758 79.115 C 180.265 82.110,180.352 115.035,180.892 129.455 C 181.623 148.987,181.604 149.483,180.110 150.818 C 178.537 152.224,177.326 152.316,156.600 152.613 C 136.978 152.894,126.883 153.400,121.053 154.393 C 114.369 155.531,109.290 155.927,92.600 156.610 C 75.541 157.307,72.950 157.576,69.915 158.964 C 68.745 159.500,67.292 160.062,66.687 160.214 C 66.081 160.366,65.184 161.019,64.693 161.666 C 64.202 162.313,63.215 163.530,62.499 164.371 C 60.107 167.181,60.171 173.250,62.621 175.913 C 63.373 176.731,64.329 177.789,64.745 178.265 C 66.451 180.218,91.323 179.813,104.800 177.613 C 117.739 175.501,117.028 174.338,117.390 198.200 C 117.624 213.644,117.858 218.817,118.798 229.400 C 120.817 252.121,121.315 251.495,100.970 251.822 C 81.381 252.138,77.717 252.587,76.809 254.779 C 76.552 255.399,75.808 256.417,75.156 257.042 C 72.158 259.915,72.247 265.730,75.345 269.356 C 79.237 273.912,80.389 274.026,109.800 272.756 C 130.769 271.851,182.930 272.047,184.269 273.035 C 187.745 275.603,188.289 281.482,187.526 308.268 C 186.947 328.584,186.955 328.622,192.415 333.176 C 195.338 335.613,200.063 335.531,202.800 332.995 C 203.570 332.282,204.740 331.449,205.400 331.145 C 206.351 330.706,206.708 330.177,207.121 328.596 C 208.282 324.151,209.195 298.914,208.662 286.025 C 208.118 272.885,209.468 271.817,224.400 273.575 C 227.783 273.973,246.837 274.778,272.400 275.603 C 285.360 276.021,296.228 276.806,299.714 277.575 C 301.825 278.041,308.941 278.676,316.002 279.028 C 323.227 279.388,325.651 278.911,327.009 276.859 C 327.547 276.045,328.500 275.077,329.126 274.707 C 333.061 272.383,331.118 263.540,325.747 259.329 C 322.661 256.909,324.921 257.199,299.800 255.999 C 278.797 254.995,279.120 255.187,278.629 243.400 C 278.491 240.100,278.028 234.250,277.598 230.400 C 275.755 213.867,275.241 178.650,276.805 176.084 C 278.453 173.382,280.214 173.043,289.400 173.661 C 303.007 174.578,317.314 174.409,318.474 173.319 C 318.989 172.835,320.053 172.170,320.837 171.842 C 323.381 170.779,324.256 168.080,323.884 162.437 C 323.587 157.942,323.417 157.569,320.506 155.030 L 318.035 152.875 314.717 152.645 C 312.893 152.519,304.470 152.315,296.000 152.191 C 287.530 152.067,276.010 151.760,270.400 151.509 C 264.790 151.258,248.289 151.041,233.731 151.026 C 203.959 150.997,205.904 151.199,204.328 147.974 C 203.496 146.271,202.805 128.789,202.430 100.000 L 202.183 81.000 200.302 77.176 L 198.422 73.353 196.311 72.703 C 193.302 71.777,190.116 71.575,187.798 72.163 M251.632 172.910 C 254.284 174.697,254.402 175.545,254.827 195.785 C 255.035 205.693,255.384 216.410,255.602 219.600 C 255.821 222.790,256.113 231.070,256.252 238.000 L 256.506 250.600 255.458 251.565 L 254.410 252.530 235.905 252.258 C 225.727 252.109,214.430 251.808,210.800 251.590 C 207.170 251.372,191.207 251.029,175.326 250.827 C 136.579 250.336,140.809 253.069,139.991 228.000 C 139.779 221.510,139.604 207.456,139.603 196.770 L 139.600 177.339 140.606 176.395 C 141.596 175.464,141.812 175.442,154.906 174.946 C 167.624 174.464,173.189 174.122,183.800 173.171 C 186.440 172.934,199.580 172.605,213.000 172.440 C 254.732 171.926,250.088 171.870,251.632 172.910 " stroke="none" fill="#f5efe5" fill-rule="evenodd"></path><path id="path1" d="M171.307 54.404 C 170.670 54.665,170.341 55.231,170.156 56.384 L 169.898 58.000 156.377 58.000 C 144.893 58.000,142.767 58.090,142.257 58.600 C 141.927 58.930,141.496 59.200,141.298 59.200 C 140.788 59.200,139.200 60.960,139.200 61.526 C 139.200 61.876,136.823 62.012,130.100 62.047 C 118.752 62.106,118.722 62.112,118.299 64.253 L 117.972 65.901 110.824 66.070 C 102.945 66.256,102.400 66.420,102.400 68.597 L 102.400 69.896 97.025 70.078 C 91.135 70.278,90.520 70.503,90.323 72.530 L 90.200 73.800 86.529 74.004 C 82.337 74.237,82.404 74.202,82.121 76.312 L 81.909 77.890 78.885 78.146 C 75.506 78.432,74.400 79.088,74.400 80.810 C 74.400 81.802,74.243 81.914,72.580 82.101 C 70.372 82.350,70.386 82.337,70.114 84.367 C 69.903 85.941,69.842 86.000,68.427 86.000 C 66.576 86.000,66.000 86.576,66.000 88.429 C 66.000 89.835,65.931 89.909,64.388 90.156 C 62.403 90.473,62.000 91.326,62.000 95.204 L 62.000 97.956 60.100 98.078 L 58.200 98.200 58.081 100.700 C 58.000 102.400,57.798 103.200,57.451 103.200 C 56.843 103.200,55.200 104.867,55.200 105.483 C 55.200 105.720,54.930 106.018,54.600 106.145 C 54.122 106.328,54.000 107.190,54.000 110.387 L 54.000 114.400 52.862 114.400 C 50.267 114.400,50.214 114.679,50.071 129.041 L 49.941 142.000 48.871 142.224 C 45.806 142.865,45.968 139.689,46.091 196.573 C 46.210 251.718,46.080 248.954,48.582 249.423 L 50.000 249.689 50.000 266.618 C 50.000 285.444,50.002 285.463,52.369 285.841 L 53.962 286.096 54.081 300.148 C 54.212 315.676,54.279 316.106,56.700 317.172 L 58.000 317.744 58.000 323.392 C 58.000 329.695,58.115 330.000,60.480 330.000 C 61.999 330.000,62.000 330.001,62.017 331.700 C 62.066 336.474,62.636 337.387,65.808 337.784 C 68.018 338.060,69.777 339.388,70.066 341.000 C 70.196 341.726,70.571 341.811,74.105 341.914 L 78.000 342.029 78.000 343.386 C 78.000 346.000,78.001 346.000,90.577 346.000 L 101.898 346.000 102.156 347.612 C 102.562 350.157,97.882 350.023,182.383 349.907 C 267.859 349.790,261.600 349.992,261.600 347.351 L 261.600 346.000 283.000 346.000 C 306.911 346.000,306.000 346.111,306.000 343.200 L 306.000 342.000 311.813 342.000 C 316.610 342.000,317.665 341.895,317.855 341.400 C 317.982 341.070,318.305 340.800,318.573 340.800 C 319.174 340.800,320.800 339.116,320.800 338.493 C 320.800 338.214,321.768 337.992,323.300 337.919 L 325.800 337.800 325.922 335.900 L 326.044 334.000 328.022 334.000 C 329.110 334.000,330.000 333.859,330.000 333.688 C 330.000 333.516,330.551 333.167,331.225 332.913 C 332.002 332.620,332.620 332.002,332.913 331.225 C 333.167 330.551,333.516 330.000,333.688 330.000 C 333.859 330.000,334.000 329.110,334.000 328.022 L 334.000 326.044 335.900 325.922 L 337.800 325.800 337.920 323.948 C 338.038 322.125,338.065 322.092,339.632 321.841 C 341.676 321.514,342.000 320.694,342.000 315.849 C 342.000 311.942,343.096 309.819,345.121 309.805 C 345.704 309.801,345.816 309.257,345.914 305.954 L 346.028 302.108 347.696 301.754 C 349.849 301.297,349.910 301.052,349.960 292.753 L 350.000 286.105 351.633 285.886 C 352.531 285.766,353.386 285.547,353.533 285.400 C 353.680 285.254,353.838 254.233,353.884 216.467 C 353.978 139.734,354.147 144.519,351.309 143.200 L 350.017 142.600 350.009 130.929 C 349.999 117.957,350.008 118.000,347.371 118.000 L 346.000 118.000 346.000 110.629 C 346.000 102.395,345.880 102.000,343.371 102.000 L 342.000 102.000 342.000 96.800 C 342.000 90.972,341.600 90.000,339.200 90.000 L 338.000 90.000 337.953 87.500 C 337.871 83.208,337.642 82.673,335.719 82.293 C 334.059 81.965,334.041 81.942,333.921 80.081 L 333.800 78.200 331.921 78.079 L 330.042 77.958 329.921 76.079 L 329.800 74.200 327.900 74.078 L 326.000 73.956 326.000 72.458 C 326.000 70.566,325.431 70.000,323.528 70.000 C 322.201 70.000,321.987 69.865,321.784 68.900 C 321.277 66.492,320.593 66.136,316.308 66.047 C 314.145 66.003,314.002 65.938,313.784 64.900 C 313.236 62.297,312.756 62.118,306.158 62.047 L 301.716 62.000 301.344 60.700 C 300.663 58.323,300.025 58.214,286.100 58.079 L 273.600 57.958 273.600 56.628 C 273.600 54.036,277.117 54.208,222.239 54.120 C 192.833 54.073,171.832 54.190,171.307 54.404 M195.228 69.362 C 195.804 69.847,197.119 70.566,198.150 70.960 C 199.704 71.553,200.191 72.003,200.994 73.588 C 201.527 74.640,202.232 75.603,202.561 75.730 C 204.569 76.500,204.573 76.551,204.861 107.000 C 205.086 130.715,205.561 145.867,206.090 146.178 C 208.386 147.530,208.818 147.549,242.000 147.773 C 277.254 148.010,285.447 148.317,312.106 150.394 C 320.794 151.071,323.456 152.430,325.194 157.077 C 325.658 158.315,326.388 159.822,326.818 160.426 C 327.932 161.990,327.910 165.898,326.779 167.335 C 326.328 167.909,325.679 169.199,325.337 170.202 C 324.996 171.205,324.264 172.335,323.712 172.713 C 323.160 173.091,322.111 173.967,321.381 174.660 C 318.993 176.927,318.714 176.952,299.402 176.660 C 282.475 176.405,281.752 176.424,280.544 177.165 L 279.288 177.935 279.456 192.467 C 279.549 200.460,279.800 210.800,280.015 215.444 C 280.229 220.088,280.515 229.718,280.650 236.844 C 280.954 252.920,280.221 251.395,287.806 251.753 C 293.993 252.045,301.717 252.888,304.276 253.551 C 306.072 254.016,308.809 254.283,317.151 254.809 C 325.462 255.333,325.857 255.466,329.206 258.862 C 332.541 262.244,332.864 263.173,332.877 269.415 C 332.887 274.533,332.774 274.844,329.809 277.809 C 326.515 281.103,327.134 280.973,315.200 280.879 C 298.447 280.748,284.649 279.892,278.200 278.583 C 271.082 277.139,214.910 275.698,213.080 276.913 C 212.268 277.452,212.254 277.762,212.157 297.830 C 212.058 318.405,211.739 324.117,210.595 325.864 C 210.250 326.391,209.606 327.990,209.166 329.417 C 208.486 331.618,208.126 332.163,206.799 333.001 C 205.939 333.544,205.032 334.366,204.785 334.828 C 203.381 337.452,191.549 337.617,190.555 335.026 C 190.426 334.691,189.686 334.024,188.909 333.544 C 188.010 332.988,187.206 332.006,186.692 330.836 C 186.249 329.826,185.476 328.509,184.976 327.908 C 183.632 326.296,183.483 323.527,183.939 308.600 C 184.524 289.470,184.179 278.274,182.959 276.824 L 182.038 275.729 161.719 275.469 C 149.853 275.318,138.904 275.370,135.400 275.596 C 125.181 276.254,82.445 276.607,80.239 276.051 C 77.497 275.361,72.312 271.019,71.670 268.876 C 71.110 267.007,71.042 258.868,71.575 257.467 C 71.781 256.925,72.686 255.698,73.586 254.741 C 74.486 253.783,75.577 252.621,76.011 252.158 C 76.526 251.609,77.936 251.070,80.065 250.610 C 81.861 250.222,83.886 249.678,84.565 249.402 C 85.384 249.068,90.582 248.733,100.000 248.406 C 113.861 247.926,114.222 247.893,115.135 247.013 L 116.071 246.111 115.635 231.311 C 115.396 223.170,115.200 208.675,115.200 199.099 C 115.200 183.098,115.143 181.622,114.500 180.866 C 113.722 179.951,115.249 179.928,87.200 181.283 C 67.585 182.230,64.865 181.990,61.983 179.062 C 59.393 176.431,59.079 175.549,59.041 170.800 C 58.987 164.057,60.162 161.596,65.074 158.163 C 68.839 155.532,68.912 155.517,80.000 155.145 C 92.188 154.735,97.388 154.299,102.659 153.241 C 108.502 152.069,115.244 151.614,132.800 151.207 C 161.396 150.542,168.136 150.196,176.699 148.953 C 179.443 148.554,179.811 141.929,178.387 118.600 C 177.746 108.101,177.900 83.206,178.630 79.231 C 179.501 74.493,182.706 70.400,185.547 70.400 C 185.871 70.400,186.422 70.142,186.769 69.828 C 189.039 67.774,193.076 67.552,195.228 69.362 M228.749 93.113 C 231.181 94.239,231.333 95.089,231.645 109.353 L 231.925 122.107 232.915 123.096 L 233.904 124.086 246.252 124.426 C 272.442 125.148,277.548 125.516,279.623 126.830 C 283.823 129.490,283.893 130.418,280.112 133.364 C 277.930 135.064,278.592 135.027,264.800 134.213 C 259.410 133.895,249.510 133.441,242.800 133.205 C 225.648 132.600,224.753 132.369,223.807 128.302 C 222.912 124.450,222.542 98.826,223.339 95.813 C 224.315 92.118,225.414 91.570,228.749 93.113 M211.800 176.043 C 177.778 176.428,144.121 177.114,142.637 177.452 L 141.473 177.718 141.748 195.159 C 141.904 205.072,142.267 215.017,142.588 218.200 C 143.444 226.672,143.614 229.089,143.977 237.980 C 144.294 245.747,144.356 246.197,145.200 246.880 C 146.037 247.558,147.735 247.600,174.344 247.603 C 203.093 247.605,214.535 247.918,227.400 249.051 C 239.497 250.117,243.179 250.343,248.900 250.372 L 254.400 250.400 254.378 246.700 C 254.367 244.665,254.197 241.650,254.002 240.000 C 253.806 238.350,253.372 234.750,253.037 232.000 C 251.997 223.474,251.600 213.380,251.599 195.456 C 251.597 178.959,251.562 178.143,250.804 176.900 L 250.012 175.600 244.106 175.672 C 240.858 175.711,226.320 175.878,211.800 176.043 M235.878 183.840 C 240.586 185.208,240.489 184.695,240.697 209.497 L 240.868 229.993 239.623 231.239 C 238.535 232.327,238.195 232.451,236.946 232.216 C 231.993 231.287,232.224 232.269,232.072 211.418 C 231.945 193.959,231.936 193.791,231.072 192.853 L 230.200 191.906 218.400 192.125 C 211.910 192.245,203.916 192.561,200.636 192.828 C 191.599 193.564,188.544 190.783,192.914 185.802 C 194.782 183.673,229.802 182.074,235.878 183.840 M166.405 288.953 C 169.680 290.360,171.392 296.829,171.396 307.814 L 171.400 317.029 170.000 319.800 C 166.478 326.770,161.109 323.604,162.437 315.339 C 162.952 312.136,162.776 302.564,162.183 301.535 C 161.972 301.169,161.093 300.108,160.230 299.177 L 158.659 297.483 153.430 297.741 C 150.553 297.883,143.049 298.261,136.754 298.582 C 122.735 299.296,121.949 299.186,120.471 296.306 C 119.422 294.264,119.619 292.831,121.137 291.458 C 123.048 289.729,163.060 287.515,166.405 288.953 M56.986 314.622 C 57.593 315.184,58.011 315.722,57.915 315.818 C 57.820 315.914,57.226 315.454,56.596 314.796 C 55.196 313.335,55.467 313.214,56.986 314.622 " stroke="none" fill="#f92b24" fill-rule="evenodd"></path><path id="path2" d="M342.800 79.552 C 342.800 79.942,344.355 81.398,344.523 81.164 C 344.587 81.074,344.226 80.601,343.720 80.114 C 343.214 79.627,342.800 79.374,342.800 79.552 M224.885 92.726 C 221.878 95.028,222.104 128.773,225.142 131.234 C 226.522 132.351,230.190 132.760,242.800 133.205 C 249.510 133.441,259.410 133.895,264.800 134.213 C 278.592 135.027,277.930 135.064,280.112 133.364 C 283.893 130.418,283.823 129.490,279.623 126.830 C 277.548 125.516,272.442 125.148,246.252 124.426 L 233.904 124.086 232.915 123.096 L 231.925 122.107 231.645 109.353 C 231.333 95.089,231.181 94.239,228.749 93.113 C 226.456 92.052,225.844 91.991,224.885 92.726 M207.000 183.645 C 193.879 184.273,192.678 184.644,191.550 188.411 C 190.363 192.371,192.643 193.479,200.636 192.828 C 203.916 192.561,211.910 192.245,218.400 192.125 L 230.200 191.906 231.072 192.853 C 231.936 193.791,231.945 193.959,232.072 211.418 C 232.224 232.269,231.993 231.287,236.946 232.216 C 238.195 232.451,238.535 232.327,239.623 231.239 L 240.868 229.993 240.697 209.497 C 240.489 184.695,240.586 185.208,235.878 183.840 C 233.415 183.124,219.802 183.032,207.000 183.645 M144.000 289.009 C 130.281 289.588,122.254 290.447,121.137 291.458 C 119.619 292.831,119.422 294.264,120.471 296.306 C 121.949 299.186,122.735 299.296,136.754 298.582 C 143.049 298.261,150.553 297.883,153.430 297.741 L 158.659 297.483 160.230 299.177 C 161.093 300.108,161.972 301.169,162.183 301.535 C 162.776 302.564,162.952 312.136,162.437 315.339 C 161.109 323.604,166.478 326.770,170.000 319.800 L 171.400 317.029 171.396 307.814 C 171.392 297.396,171.097 295.751,168.483 291.569 C 166.349 288.156,165.741 288.092,144.000 289.009 M34.268 310.566 C 34.135 310.915,33.781 311.200,33.482 311.200 C 32.873 311.200,31.436 312.666,31.098 313.633 C 30.708 314.749,31.752 314.251,33.435 312.519 C 34.355 311.572,34.948 310.639,34.790 310.385 C 34.601 310.078,34.433 310.137,34.268 310.566 M46.400 310.400 C 47.176 310.901,47.600 310.901,47.600 310.400 C 47.600 310.180,47.195 310.003,46.700 310.006 C 45.972 310.011,45.915 310.086,46.400 310.400 M49.416 313.250 C 49.614 313.875,49.552 314.018,49.181 313.788 C 48.851 313.584,48.776 313.638,48.966 313.945 C 49.125 314.202,49.423 314.309,49.628 314.183 C 50.142 313.865,50.098 312.400,49.573 312.400 C 49.320 312.400,49.256 312.746,49.416 313.250 M49.954 315.513 C 50.158 315.896,50.698 316.546,51.154 316.958 C 51.609 317.370,51.885 317.863,51.767 318.053 C 51.649 318.244,51.833 318.400,52.176 318.400 C 52.519 318.400,52.800 318.580,52.800 318.800 C 52.800 319.020,53.115 319.186,53.500 319.168 C 53.922 319.149,54.001 319.056,53.698 318.934 C 53.421 318.823,53.314 318.539,53.459 318.304 C 53.616 318.051,53.535 317.993,53.262 318.162 C 52.975 318.339,52.800 318.161,52.800 317.693 C 52.800 316.887,51.455 315.480,50.291 315.069 C 49.715 314.865,49.651 314.949,49.954 315.513 M54.600 326.800 C 54.016 327.051,53.971 327.151,54.430 327.172 C 55.514 327.220,56.845 329.012,56.925 330.529 C 56.972 331.415,57.142 331.812,57.376 331.581 C 57.906 331.055,58.018 329.941,57.510 330.256 C 57.228 330.430,57.177 330.046,57.355 329.097 C 57.758 326.953,56.562 325.957,54.600 326.800 M56.789 327.387 C 57.619 328.387,57.050 328.651,56.114 327.700 C 55.544 327.121,55.420 326.800,55.765 326.800 C 56.061 326.800,56.521 327.064,56.789 327.387 M54.210 328.452 C 54.414 329.512,54.488 329.586,55.548 329.790 C 56.609 329.994,56.067 328.678,54.813 328.007 C 54.153 327.654,54.068 327.716,54.210 328.452 M31.024 335.950 C 31.226 336.684,31.162 336.826,30.743 336.573 C 30.293 336.303,30.294 336.363,30.749 336.923 C 31.363 337.680,31.797 337.843,31.374 337.157 C 31.188 336.857,31.405 336.799,32.050 336.976 C 32.841 337.194,32.885 337.166,32.313 336.806 C 31.935 336.569,31.431 336.065,31.194 335.687 C 30.834 335.115,30.806 335.159,31.024 335.950 M63.600 339.317 C 63.930 339.603,64.447 340.098,64.749 340.418 C 65.219 340.916,65.235 340.877,64.860 340.147 C 64.619 339.678,64.102 339.183,63.711 339.046 C 63.092 338.830,63.078 338.865,63.600 339.317 M35.290 342.496 C 34.944 343.214,34.849 343.256,34.827 342.700 C 34.794 341.849,34.000 341.753,34.000 342.600 C 34.000 342.930,34.187 343.200,34.415 343.200 C 34.643 343.200,34.778 343.695,34.715 344.300 C 34.612 345.284,34.716 345.388,35.700 345.285 C 36.305 345.222,36.800 345.336,36.800 345.538 C 36.800 345.741,37.121 345.991,37.514 346.093 C 37.993 346.219,38.229 346.056,38.229 345.600 C 38.229 345.128,37.980 344.971,37.414 345.087 C 36.727 345.229,36.700 345.191,37.239 344.842 C 38.094 344.289,37.978 342.302,37.083 342.171 C 36.001 342.012,35.794 342.866,36.731 343.624 C 37.491 344.240,37.513 344.348,36.923 344.574 C 35.854 344.984,35.021 343.881,35.593 342.812 C 35.853 342.328,35.989 341.855,35.895 341.762 C 35.802 341.669,35.530 341.999,35.290 342.496 M69.710 343.595 C 69.741 344.007,69.883 344.273,70.025 344.185 C 70.425 343.937,72.045 345.821,71.716 346.151 C 71.556 346.311,71.734 346.324,72.112 346.178 C 73.050 345.818,72.975 345.097,71.900 344.129 C 70.548 342.912,69.642 342.691,69.710 343.595 M76.803 346.603 C 77.017 346.862,77.075 347.192,76.930 347.337 C 76.785 347.482,76.871 347.600,77.121 347.600 C 77.387 347.600,77.466 347.890,77.313 348.300 C 77.093 348.886,77.149 348.919,77.660 348.505 C 78.162 348.098,78.429 348.179,79.164 348.962 C 79.831 349.671,79.924 349.968,79.529 350.125 C 79.179 350.265,79.161 350.348,79.476 350.368 C 79.738 350.386,80.072 350.207,80.218 349.970 C 80.533 349.461,78.893 347.600,78.130 347.600 C 77.667 347.600,77.446 347.146,77.530 346.367 C 77.544 346.238,77.298 346.133,76.984 346.133 C 76.592 346.133,76.535 346.281,76.803 346.603 M78.000 346.773 C 78.000 347.008,78.239 347.200,78.530 347.200 C 79.325 347.200,80.711 348.863,80.865 350.000 C 80.962 350.717,81.283 351.038,82.000 351.135 C 83.891 351.391,85.399 353.498,84.493 354.620 C 84.325 354.829,84.262 354.958,84.354 354.906 C 84.832 354.638,85.503 356.235,85.110 356.708 C 84.789 357.096,84.845 357.158,85.343 356.966 C 86.129 356.665,86.170 356.330,85.503 355.663 C 85.108 355.268,85.128 355.090,85.603 354.789 C 85.932 354.582,86.020 354.409,85.800 354.406 C 85.580 354.402,85.373 353.939,85.341 353.376 C 85.268 352.110,84.261 350.952,82.944 350.622 C 82.319 350.465,81.742 349.880,81.397 349.054 C 80.655 347.279,78.000 345.496,78.000 346.773 M28.133 350.562 C 28.133 350.874,28.378 351.030,28.683 350.913 C 29.008 350.788,29.185 350.926,29.116 351.251 C 29.052 351.553,29.199 351.764,29.443 351.719 C 29.687 351.674,30.396 352.169,31.018 352.819 C 31.640 353.469,32.292 354.000,32.466 354.000 C 33.149 354.000,31.851 352.060,30.856 351.592 C 30.275 351.319,30.015 351.017,30.278 350.922 C 31.126 350.614,32.453 351.628,33.039 353.032 C 33.806 354.868,34.088 354.776,33.442 352.900 C 32.870 351.238,31.477 350.280,30.100 350.604 C 29.605 350.720,29.200 350.632,29.200 350.408 C 29.200 350.183,28.960 350.000,28.667 350.000 C 28.373 350.000,28.133 350.253,28.133 350.562 M25.906 350.683 C 26.429 350.784,26.699 351.040,26.544 351.290 C 26.383 351.551,26.463 351.608,26.745 351.434 C 27.434 351.008,26.888 350.392,25.876 350.454 C 25.007 350.509,25.007 350.510,25.906 350.683 M81.784 352.027 C 81.639 352.261,81.628 352.561,81.760 352.693 C 81.892 352.825,82.000 352.692,82.000 352.397 C 82.000 352.057,82.367 352.205,83.004 352.804 C 84.091 353.825,83.583 354.767,82.413 353.899 C 82.027 353.612,82.059 353.726,82.500 354.208 C 83.158 354.925,83.241 354.931,83.877 354.294 C 84.514 353.657,84.498 353.556,83.608 352.608 C 82.570 351.503,82.183 351.380,81.784 352.027 M30.000 353.200 C 30.235 353.640,30.630 354.000,30.876 354.000 C 31.122 354.000,30.998 353.640,30.600 353.200 C 30.202 352.760,29.808 352.400,29.724 352.400 C 29.640 352.400,29.765 352.760,30.000 353.200 M44.646 354.111 C 44.783 354.502,45.278 355.019,45.747 355.260 C 46.477 355.635,46.516 355.619,46.018 355.149 C 45.698 354.847,45.203 354.330,44.917 354.000 C 44.465 353.478,44.430 353.492,44.646 354.111 M14.842 354.949 C 13.955 356.018,14.744 356.824,15.732 355.858 C 16.275 355.328,16.456 354.888,16.205 354.706 C 15.621 354.283,15.356 354.330,14.842 354.949 M45.287 356.391 C 45.565 356.836,45.929 357.200,46.096 357.200 C 46.674 357.200,46.397 356.591,45.591 356.087 C 44.841 355.619,44.819 355.641,45.287 356.391 M45.822 359.888 C 45.676 360.266,45.691 360.442,45.854 360.280 C 46.165 359.968,49.200 362.714,49.200 363.308 C 49.200 363.498,48.404 363.001,47.432 362.205 C 45.974 361.010,45.701 360.900,45.878 361.578 C 45.997 362.030,46.252 362.400,46.447 362.400 C 46.641 362.400,46.755 362.538,46.700 362.708 C 46.645 362.877,47.005 363.531,47.500 364.162 C 47.995 364.792,48.400 365.160,48.400 364.980 C 48.400 364.799,48.009 364.235,47.530 363.726 C 47.052 363.217,46.859 362.800,47.101 362.800 C 47.344 362.800,47.894 363.248,48.325 363.796 C 49.092 364.770,49.114 364.774,49.327 363.956 C 49.908 361.734,46.591 357.884,45.822 359.888 M85.267 360.442 C 84.978 360.905,84.919 361.174,85.136 361.039 C 85.354 360.905,85.623 361.021,85.734 361.298 C 85.846 361.574,85.951 361.305,85.968 360.700 C 86.006 359.379,85.945 359.356,85.267 360.442 M54.000 363.867 C 54.000 364.160,54.161 364.400,54.357 364.400 C 54.554 364.400,54.807 364.160,54.919 363.867 C 55.032 363.573,54.871 363.333,54.562 363.333 C 54.253 363.333,54.000 363.573,54.000 363.867 M55.626 363.769 C 55.351 364.100,55.314 364.423,55.535 364.560 C 55.741 364.687,56.118 364.539,56.374 364.231 C 56.649 363.900,56.686 363.577,56.465 363.440 C 56.259 363.313,55.882 363.461,55.626 363.769 M56.100 365.065 C 55.435 365.333,55.459 366.000,56.133 366.000 C 56.427 366.000,56.667 365.730,56.667 365.400 C 56.667 365.070,56.652 364.814,56.633 364.832 C 56.615 364.849,56.375 364.954,56.100 365.065 M48.142 368.268 C 47.403 369.023,47.371 369.180,47.913 369.388 C 48.752 369.710,49.794 368.654,49.344 367.937 C 49.067 367.496,48.832 367.561,48.142 368.268 M14.000 367.957 C 14.000 368.464,15.577 369.356,15.901 369.032 C 16.029 368.905,15.936 368.800,15.695 368.800 C 15.454 368.800,14.974 368.517,14.629 368.171 C 14.283 367.826,14.000 367.729,14.000 367.957 M62.000 368.400 C 62.000 368.620,62.191 368.800,62.424 368.800 C 62.657 368.800,62.719 369.008,62.562 369.262 C 62.393 369.535,62.451 369.616,62.704 369.459 C 62.939 369.314,63.212 369.421,63.311 369.698 C 63.415 369.990,63.639 370.052,63.845 369.845 C 64.052 369.639,63.990 369.415,63.698 369.311 C 63.421 369.212,63.314 368.939,63.459 368.704 C 63.616 368.451,63.535 368.393,63.262 368.562 C 63.008 368.719,62.800 368.657,62.800 368.424 C 62.800 368.191,62.620 368.000,62.400 368.000 C 62.180 368.000,62.000 368.180,62.000 368.400 M39.684 375.844 C 39.401 376.150,39.328 376.400,39.523 376.400 C 39.718 376.400,40.086 376.805,40.341 377.300 L 40.804 378.200 40.563 377.261 C 40.349 376.429,40.429 376.351,41.261 376.580 C 42.145 376.823,42.153 376.810,41.400 376.353 C 40.960 376.087,40.510 375.738,40.400 375.578 C 40.290 375.419,39.968 375.539,39.684 375.844 M26.000 376.273 C 26.000 376.563,26.191 376.800,26.424 376.800 C 26.657 376.800,26.719 377.008,26.562 377.262 C 26.385 377.548,26.452 377.615,26.738 377.438 C 26.992 377.281,27.200 377.343,27.200 377.576 C 27.200 377.809,27.437 378.000,27.727 378.000 C 28.039 378.000,28.255 377.539,28.255 376.873 C 28.255 375.903,28.097 375.745,27.127 375.745 C 26.461 375.745,26.000 375.961,26.000 376.273 M27.925 376.775 C 28.025 377.075,27.875 377.225,27.575 377.125 C 27.286 377.029,26.971 376.714,26.875 376.425 C 26.775 376.125,26.925 375.975,27.225 376.075 C 27.514 376.171,27.829 376.486,27.925 376.775 M29.693 377.006 C 29.134 377.640,30.438 378.207,31.831 377.935 C 32.476 377.809,32.473 377.758,31.786 377.200 C 31.361 376.855,31.174 376.813,31.347 377.100 C 31.548 377.434,31.379 377.600,30.836 377.600 C 30.280 377.600,30.097 377.412,30.255 377.000 C 30.541 376.255,30.353 376.257,29.693 377.006 M37.376 377.387 C 36.403 378.124,38.158 378.297,39.200 377.568 C 39.663 377.244,39.583 377.209,38.850 377.417 C 38.204 377.600,37.987 377.544,38.174 377.243 C 38.545 376.643,38.303 376.686,37.376 377.387 " stroke="none" fill="#472124" fill-rule="evenodd"></path><path id="path3" d="M348.243 2.347 C 347.016 2.615,346.582 3.153,346.229 4.848 C 346.050 5.709,345.723 5.942,344.393 6.155 C 342.401 6.473,342.000 7.322,342.000 11.218 C 342.000 13.913,341.972 13.991,340.900 14.216 C 338.492 14.723,338.136 15.407,338.047 19.692 C 338.003 21.855,337.938 21.998,336.900 22.216 C 334.498 22.722,334.137 23.409,334.047 27.647 L 334.000 29.895 332.367 30.114 C 330.190 30.406,330.220 30.349,330.060 34.433 L 329.920 38.000 328.440 38.000 C 326.522 38.000,326.000 38.573,326.000 40.680 C 326.000 42.304,325.936 42.400,324.862 42.400 C 322.412 42.400,322.200 43.182,322.200 52.228 C 322.200 62.834,320.999 61.800,333.314 61.800 C 346.137 61.800,345.435 62.072,345.869 56.941 L 346.117 54.000 347.579 54.000 C 349.547 54.000,350.000 53.423,350.000 50.920 C 350.000 49.426,350.157 48.800,350.530 48.800 C 351.153 48.800,352.800 47.143,352.800 46.517 C 352.800 46.280,353.070 45.982,353.400 45.855 C 353.823 45.693,354.000 45.032,354.000 43.613 L 354.000 41.600 355.351 41.600 C 357.228 41.600,357.547 41.027,357.848 37.117 C 358.105 33.771,358.138 33.685,359.355 33.148 C 360.989 32.429,361.728 30.806,361.927 27.500 C 362.034 25.740,362.259 24.800,362.575 24.800 C 363.163 24.800,364.800 23.120,364.800 22.517 C 364.800 22.280,365.070 21.982,365.400 21.855 C 365.903 21.663,366.000 20.458,366.000 14.441 C 366.000 6.443,365.865 6.000,363.428 6.000 C 362.207 6.000,362.088 5.880,361.757 4.318 C 361.480 3.014,361.175 2.573,360.400 2.357 C 359.156 2.012,349.814 2.004,348.243 2.347 M307.720 26.318 C 307.236 26.473,306.206 27.343,305.431 28.251 C 304.119 29.788,303.854 29.914,301.605 30.077 C 300.276 30.173,298.966 30.475,298.694 30.747 C 297.967 31.475,297.991 48.552,298.720 49.280 C 299.120 49.680,301.639 49.800,309.609 49.800 C 323.030 49.800,321.800 50.809,321.800 39.804 C 321.800 30.024,321.992 30.434,317.247 30.108 L 313.991 29.885 313.743 28.334 C 313.607 27.480,313.363 26.701,313.202 26.601 C 312.632 26.249,308.588 26.040,307.720 26.318 M370.500 42.452 C 370.225 42.731,370.000 43.634,370.000 44.458 L 370.000 45.956 368.100 46.078 L 366.200 46.200 366.078 48.100 L 365.956 50.000 364.278 50.010 C 360.412 50.032,358.400 51.074,358.400 53.056 C 358.400 53.862,358.177 53.971,356.300 54.079 L 354.200 54.200 354.078 56.100 L 353.956 58.000 350.458 58.000 C 346.476 58.000,346.000 58.265,346.000 60.480 C 346.000 61.973,345.973 62.000,344.480 62.000 C 342.058 62.000,342.000 62.188,342.000 70.005 C 342.000 81.435,342.565 82.000,353.995 82.000 C 361.812 82.000,362.000 81.942,362.000 79.520 L 362.000 78.000 365.520 78.000 C 369.506 78.000,370.000 77.733,370.000 75.578 L 370.000 74.115 373.278 73.842 C 377.051 73.527,377.600 73.211,377.600 71.351 C 377.600 70.026,377.633 70.000,379.320 70.000 C 381.431 70.000,382.000 69.478,382.000 67.542 L 382.000 66.044 383.900 65.922 L 385.800 65.800 385.921 63.921 L 386.042 62.042 387.921 61.921 L 389.800 61.800 389.800 52.714 C 389.800 44.527,389.729 43.557,389.086 42.914 C 388.159 41.986,371.368 41.569,370.500 42.452 M77.883 348.528 C 77.752 348.869,78.053 349.307,78.631 349.617 C 79.967 350.332,80.191 349.919,79.050 348.847 C 78.296 348.139,78.057 348.074,77.883 348.528 M82.000 352.481 C 82.000 353.230,83.003 354.132,83.610 353.930 C 83.851 353.850,83.587 353.351,83.024 352.822 C 82.245 352.091,82.000 352.009,82.000 352.481 M33.507 377.890 C 34.226 377.979,35.306 377.977,35.907 377.886 C 36.508 377.795,35.920 377.722,34.600 377.724 C 33.280 377.726,32.788 377.801,33.507 377.890 " stroke="none" fill="#3c9cdc" fill-rule="evenodd"></path><path id="path4" d="M188.601 68.612 C 187.941 68.966,187.117 69.513,186.769 69.828 C 186.422 70.142,185.871 70.400,185.547 70.400 C 182.706 70.400,179.501 74.493,178.630 79.231 C 177.900 83.206,177.746 108.101,178.387 118.600 C 179.811 141.929,179.443 148.554,176.699 148.953 C 168.136 150.196,161.396 150.542,132.800 151.207 C 115.244 151.614,108.502 152.069,102.659 153.241 C 97.388 154.299,92.188 154.735,80.000 155.145 C 68.912 155.517,68.839 155.532,65.074 158.163 C 60.162 161.596,58.987 164.057,59.041 170.800 C 59.079 175.549,59.393 176.431,61.983 179.062 C 64.865 181.990,67.585 182.230,87.200 181.283 C 115.249 179.928,113.722 179.951,114.500 180.866 C 115.143 181.622,115.200 183.098,115.200 199.099 C 115.200 208.675,115.396 223.170,115.635 231.311 L 116.071 246.111 115.135 247.013 C 114.222 247.893,113.861 247.926,100.000 248.406 C 90.582 248.733,85.384 249.068,84.565 249.402 C 83.886 249.678,81.861 250.222,80.065 250.610 C 77.936 251.070,76.526 251.609,76.011 252.158 C 75.577 252.621,74.486 253.783,73.586 254.741 C 72.686 255.698,71.781 256.925,71.575 257.467 C 71.042 258.868,71.110 267.007,71.670 268.876 C 72.312 271.019,77.497 275.361,80.239 276.051 C 82.445 276.607,125.181 276.254,135.400 275.596 C 138.904 275.370,149.853 275.318,161.719 275.469 L 182.038 275.729 182.959 276.824 C 184.179 278.274,184.524 289.470,183.939 308.600 C 183.483 323.527,183.632 326.296,184.976 327.908 C 185.476 328.509,186.249 329.826,186.692 330.836 C 187.206 332.006,188.010 332.988,188.909 333.544 C 189.686 334.024,190.426 334.691,190.555 335.026 C 191.549 337.617,203.381 337.452,204.785 334.828 C 205.032 334.366,205.939 333.544,206.799 333.001 C 208.126 332.163,208.486 331.618,209.166 329.417 C 209.606 327.990,210.250 326.391,210.595 325.864 C 211.739 324.117,212.058 318.405,212.157 297.830 C 212.254 277.762,212.268 277.452,213.080 276.913 C 214.910 275.698,271.082 277.139,278.200 278.583 C 284.649 279.892,298.447 280.748,315.200 280.879 C 327.134 280.973,326.515 281.103,329.809 277.809 C 332.774 274.844,332.887 274.533,332.877 269.415 C 332.864 263.173,332.541 262.244,329.206 258.862 C 325.857 255.466,325.462 255.333,317.151 254.809 C 308.809 254.283,306.072 254.016,304.276 253.551 C 301.717 252.888,293.993 252.045,287.806 251.753 C 280.221 251.395,280.954 252.920,280.650 236.844 C 280.515 229.718,280.229 220.088,280.015 215.444 C 279.800 210.800,279.549 200.460,279.456 192.467 L 279.288 177.935 280.544 177.165 C 281.752 176.424,282.475 176.405,299.402 176.660 C 318.714 176.952,318.993 176.927,321.381 174.660 C 322.111 173.967,323.160 173.091,323.712 172.713 C 324.264 172.335,324.996 171.205,325.337 170.202 C 325.679 169.199,326.328 167.909,326.779 167.335 C 327.910 165.898,327.932 161.990,326.818 160.426 C 326.388 159.822,325.658 158.315,325.194 157.077 C 323.456 152.430,320.794 151.071,312.106 150.394 C 285.447 148.317,277.254 148.010,242.000 147.773 C 208.818 147.549,208.386 147.530,206.090 146.178 C 205.561 145.867,205.086 130.715,204.861 107.000 C 204.573 76.551,204.569 76.500,202.561 75.730 C 202.232 75.603,201.527 74.640,200.994 73.588 C 200.191 72.003,199.704 71.553,198.150 70.960 C 197.119 70.566,195.804 69.847,195.228 69.362 C 193.777 68.141,190.225 67.739,188.601 68.612 M196.311 72.703 L 198.422 73.353 200.302 77.176 L 202.183 81.000 202.430 100.000 C 202.805 128.789,203.496 146.271,204.328 147.974 C 205.904 151.199,203.959 150.997,233.731 151.026 C 248.289 151.041,264.790 151.258,270.400 151.509 C 276.010 151.760,287.530 152.067,296.000 152.191 C 304.470 152.315,312.893 152.519,314.717 152.645 L 318.035 152.875 320.506 155.030 C 323.417 157.569,323.587 157.942,323.884 162.437 C 324.256 168.080,323.381 170.779,320.837 171.842 C 320.053 172.170,318.989 172.835,318.474 173.319 C 317.314 174.409,303.007 174.578,289.400 173.661 C 280.214 173.043,278.453 173.382,276.805 176.084 C 275.241 178.650,275.755 213.867,277.598 230.400 C 278.028 234.250,278.491 240.100,278.629 243.400 C 279.120 255.187,278.797 254.995,299.800 255.999 C 324.921 257.199,322.661 256.909,325.747 259.329 C 331.118 263.540,333.061 272.383,329.126 274.707 C 328.500 275.077,327.547 276.045,327.009 276.859 C 325.651 278.911,323.227 279.388,316.002 279.028 C 308.941 278.676,301.825 278.041,299.714 277.575 C 296.228 276.806,285.360 276.021,272.400 275.603 C 246.837 274.778,227.783 273.973,224.400 273.575 C 209.468 271.817,208.118 272.885,208.662 286.025 C 209.195 298.914,208.282 324.151,207.121 328.596 C 206.708 330.177,206.351 330.706,205.400 331.145 C 204.740 331.449,203.570 332.282,202.800 332.995 C 200.063 335.531,195.338 335.613,192.415 333.176 C 186.955 328.622,186.947 328.584,187.526 308.268 C 188.289 281.482,187.745 275.603,184.269 273.035 C 182.930 272.047,130.769 271.851,109.800 272.756 C 80.389 274.026,79.237 273.912,75.345 269.356 C 72.247 265.730,72.158 259.915,75.156 257.042 C 75.808 256.417,76.552 255.399,76.809 254.779 C 77.717 252.587,81.381 252.138,100.970 251.822 C 121.315 251.495,120.817 252.121,118.798 229.400 C 117.858 218.817,117.624 213.644,117.390 198.200 C 117.028 174.338,117.739 175.501,104.800 177.613 C 91.323 179.813,66.451 180.218,64.745 178.265 C 64.329 177.789,63.373 176.731,62.621 175.913 C 60.171 173.250,60.107 167.181,62.499 164.371 C 63.215 163.530,64.202 162.313,64.693 161.666 C 65.184 161.019,66.081 160.366,66.687 160.214 C 67.292 160.062,68.745 159.500,69.915 158.964 C 72.950 157.576,75.541 157.307,92.600 156.610 C 109.290 155.927,114.369 155.531,121.053 154.393 C 126.883 153.400,136.978 152.894,156.600 152.613 C 177.326 152.316,178.537 152.224,180.110 150.818 C 181.604 149.483,181.623 148.987,180.892 129.455 C 180.352 115.035,180.265 82.110,180.758 79.115 C 181.727 73.234,188.699 70.360,196.311 72.703 M213.000 172.440 C 199.580 172.605,186.440 172.934,183.800 173.171 C 173.189 174.122,167.624 174.464,154.906 174.946 C 141.812 175.442,141.596 175.464,140.606 176.395 L 139.600 177.339 139.603 196.770 C 139.605 215.002,140.060 235.591,140.625 243.113 C 140.915 246.977,141.802 248.403,144.713 249.691 C 146.350 250.416,148.155 250.482,175.326 250.827 C 191.207 251.029,207.170 251.372,210.800 251.590 C 214.430 251.808,225.727 252.109,235.905 252.258 L 254.410 252.530 255.458 251.565 L 256.506 250.600 256.252 238.000 C 256.113 231.070,255.821 222.790,255.602 219.600 C 255.384 216.410,255.035 205.693,254.827 195.785 C 254.402 175.545,254.284 174.697,251.632 172.910 C 250.088 171.870,254.732 171.926,213.000 172.440 M250.804 176.900 C 251.562 178.143,251.597 178.959,251.599 195.456 C 251.600 213.380,251.997 223.474,253.037 232.000 C 253.372 234.750,253.806 238.350,254.002 240.000 C 254.197 241.650,254.367 244.665,254.378 246.700 L 254.400 250.400 248.900 250.372 C 243.179 250.343,239.497 250.117,227.400 249.051 C 214.535 247.918,203.093 247.605,174.344 247.603 C 147.735 247.600,146.037 247.558,145.200 246.880 C 144.356 246.197,144.294 245.747,143.977 237.980 C 143.614 229.089,143.444 226.672,142.588 218.200 C 142.267 215.017,141.904 205.072,141.748 195.159 L 141.473 177.718 142.637 177.452 C 144.121 177.114,177.778 176.428,211.800 176.043 C 226.320 175.878,240.858 175.711,244.106 175.672 L 250.012 175.600 250.804 176.900 M34.869 310.400 C 35.100 311.143,31.971 314.200,30.979 314.200 C 30.531 314.200,30.242 314.527,30.201 315.081 C 30.166 315.566,30.286 315.871,30.468 315.758 C 30.651 315.645,30.800 315.743,30.800 315.976 C 30.800 316.209,30.642 316.400,30.449 316.400 C 30.256 316.400,30.108 320.360,30.119 325.200 C 30.130 330.040,30.291 334.000,30.477 334.000 C 30.663 334.000,30.700 334.457,30.560 335.016 C 30.196 336.469,31.414 337.737,32.891 337.442 C 33.930 337.234,34.000 337.306,34.000 338.586 C 34.000 339.338,34.180 340.064,34.401 340.201 C 34.649 340.354,34.665 340.707,34.444 341.124 C 33.913 342.124,35.004 343.068,35.569 342.098 C 36.120 341.153,36.113 341.842,35.561 342.873 C 35.021 343.881,35.893 344.970,36.923 344.574 C 37.513 344.348,37.491 344.240,36.731 343.624 C 35.787 342.860,36.003 342.013,37.102 342.174 C 37.897 342.291,38.093 343.869,37.425 344.775 C 37.093 345.224,37.140 345.297,37.641 345.110 C 38.139 344.924,38.257 345.098,38.171 345.887 C 38.109 346.446,38.225 347.340,38.428 347.875 C 38.670 348.510,38.660 348.761,38.399 348.599 C 37.804 348.232,37.917 348.774,38.571 349.429 C 39.226 350.083,39.768 350.196,39.401 349.601 C 39.237 349.337,39.503 349.335,40.191 349.597 C 40.761 349.813,41.434 349.948,41.685 349.895 C 41.977 349.834,42.153 350.523,42.171 351.800 C 42.194 353.372,42.337 353.790,42.838 353.755 C 43.189 353.730,43.713 354.090,44.002 354.555 C 44.492 355.342,44.479 355.359,43.813 354.808 C 43.280 354.368,41.866 354.199,38.290 354.150 L 33.482 354.082 32.954 352.826 C 32.300 351.270,30.004 350.155,28.791 350.805 C 28.163 351.141,28.000 351.102,28.000 350.614 C 28.000 350.153,27.552 350.000,26.200 350.000 C 24.806 350.000,24.400 350.146,24.400 350.649 C 24.400 351.188,24.296 351.212,23.783 350.786 C 22.905 350.057,22.057 350.905,22.786 351.783 C 23.210 352.294,23.191 352.400,22.677 352.400 C 22.335 352.400,21.998 352.799,21.928 353.287 C 21.833 353.946,21.525 354.178,20.733 354.187 C 20.147 354.194,19.533 354.333,19.370 354.497 C 19.207 354.660,18.832 354.593,18.537 354.348 C 18.031 353.928,17.810 354.266,17.939 355.259 C 17.957 355.401,17.657 355.435,17.271 355.334 C 16.384 355.102,15.023 356.562,15.345 357.400 C 15.493 357.787,15.318 358.141,14.893 358.315 C 14.157 358.617,13.767 360.800,14.448 360.800 C 14.673 360.800,14.706 361.018,14.524 361.300 C 14.065 362.008,14.120 368.910,14.588 369.439 C 14.802 369.681,15.325 369.788,15.751 369.676 C 16.212 369.556,16.424 369.637,16.275 369.879 C 16.014 370.300,17.714 372.153,18.051 371.815 C 18.157 371.709,18.234 372.113,18.222 372.712 L 18.200 373.800 22.000 373.835 C 25.575 373.869,25.808 373.922,25.928 374.735 C 26.040 375.492,26.705 375.792,28.015 375.676 C 28.133 375.665,28.269 376.124,28.316 376.696 C 28.430 378.066,28.481 378.096,30.156 377.782 C 31.063 377.612,31.499 377.344,31.338 377.056 C 31.186 376.785,31.301 376.803,31.621 377.100 C 32.289 377.720,36.550 377.762,37.675 377.160 C 38.152 376.905,38.393 376.887,38.251 377.118 C 37.997 377.528,38.838 378.000,39.820 378.000 C 40.370 378.000,40.190 376.833,39.573 376.400 C 39.417 376.290,39.539 375.968,39.844 375.684 C 40.150 375.401,40.400 375.335,40.400 375.538 C 40.400 375.741,40.780 376.006,41.245 376.128 C 41.997 376.324,42.064 376.219,41.855 375.174 C 41.653 374.164,41.744 373.994,42.510 373.957 C 43.000 373.934,43.936 373.889,44.590 373.857 C 45.617 373.808,45.791 373.635,45.850 372.600 C 46.058 369.001,46.168 368.490,46.694 368.691 C 46.989 368.804,47.572 368.587,47.991 368.208 C 49.153 367.156,48.777 363.200,47.514 363.200 C 47.273 363.200,47.403 363.561,47.802 364.002 C 48.954 365.275,48.321 365.150,47.071 363.858 C 46.267 363.028,46.151 362.765,46.671 362.947 C 47.312 363.171,47.325 363.142,46.775 362.701 C 46.432 362.425,46.022 361.858,45.864 361.439 C 45.660 360.894,46.063 361.079,47.289 362.090 C 50.027 364.350,49.856 368.616,47.000 369.312 C 46.276 369.489,46.285 369.512,47.100 369.554 C 50.018 369.704,50.554 364.617,47.921 361.761 C 47.034 360.798,46.165 360.098,45.991 360.206 C 45.817 360.313,45.764 360.061,45.872 359.646 C 45.981 359.230,45.891 358.780,45.672 358.645 C 45.454 358.510,45.369 358.038,45.485 357.597 C 45.600 357.157,45.448 356.498,45.147 356.134 C 44.647 355.529,44.677 355.520,45.496 356.029 C 45.989 356.336,46.349 356.852,46.296 357.176 C 46.223 357.624,46.675 357.774,48.186 357.803 L 50.172 357.841 50.163 359.421 C 50.151 361.494,50.664 361.934,52.920 361.783 C 53.948 361.714,54.890 361.823,55.015 362.024 C 55.140 362.226,54.962 362.284,54.621 362.153 C 54.218 361.998,54.000 362.141,54.000 362.557 C 54.000 362.911,54.276 363.200,54.614 363.200 C 55.115 363.200,55.145 363.356,54.777 364.043 C 54.167 365.182,54.818 365.833,55.957 365.223 C 56.640 364.858,56.800 364.886,56.800 365.370 C 56.800 365.786,57.164 365.942,57.999 365.884 C 58.659 365.838,59.202 365.620,59.205 365.400 C 59.209 365.180,59.361 365.235,59.543 365.521 C 59.725 365.808,60.037 366.011,60.237 365.974 C 61.445 365.746,62.000 366.069,62.000 367.000 C 62.000 367.550,62.188 368.000,62.418 368.000 C 62.647 368.000,62.782 368.315,62.718 368.700 C 62.637 369.177,62.823 369.363,63.300 369.282 C 63.685 369.218,64.000 369.339,64.000 369.552 C 64.000 369.791,67.232 369.930,72.405 369.914 C 79.898 369.891,80.798 369.818,80.705 369.244 C 80.635 368.814,80.844 368.642,81.335 368.726 C 81.899 368.822,82.013 368.672,81.826 368.082 C 81.478 366.985,81.959 366.000,82.843 366.000 C 83.275 366.000,83.600 365.721,83.600 365.351 C 83.600 364.812,83.704 364.788,84.217 365.214 C 85.095 365.943,85.943 365.095,85.214 364.217 C 84.788 363.704,84.812 363.600,85.351 363.600 C 85.724 363.600,86.000 363.274,86.000 362.833 C 86.000 361.610,85.555 360.781,85.058 361.079 C 84.719 361.283,84.715 361.204,85.045 360.777 C 86.089 359.423,86.100 356.465,85.058 357.071 C 84.806 357.218,84.915 356.977,85.300 356.537 C 86.054 355.676,86.261 354.591,85.593 355.004 C 85.370 355.142,85.293 355.468,85.423 355.728 C 85.553 355.987,85.403 355.888,85.090 355.506 C 84.777 355.125,84.388 354.945,84.225 355.106 C 84.062 355.268,84.155 354.903,84.430 354.296 C 85.039 352.956,83.817 351.327,82.051 351.122 C 81.275 351.032,80.965 350.738,80.865 350.000 C 80.650 348.408,79.198 347.100,77.928 347.354 C 77.053 347.529,76.877 347.437,76.989 346.859 C 77.109 346.233,76.802 346.152,74.396 346.175 C 72.895 346.189,71.743 346.123,71.837 346.030 C 72.100 345.767,70.322 344.001,69.997 344.202 C 69.840 344.299,69.731 343.904,69.755 343.323 C 69.780 342.742,69.571 342.221,69.290 342.164 C 69.009 342.107,68.966 342.152,69.192 342.264 C 69.419 342.376,69.496 342.645,69.363 342.860 C 69.220 343.091,68.806 342.967,68.358 342.562 C 67.938 342.182,67.483 341.984,67.345 342.122 C 66.747 342.720,65.523 341.516,65.714 340.518 C 65.968 339.186,64.831 338.029,63.515 338.280 C 62.456 338.483,60.810 336.688,61.604 336.197 C 62.205 335.826,62.077 335.200,61.400 335.200 C 61.070 335.200,60.800 334.930,60.800 334.600 C 60.800 333.923,60.174 333.795,59.803 334.396 C 59.259 335.275,57.701 333.635,57.851 332.342 C 57.976 331.275,57.912 331.175,57.389 331.610 C 56.886 332.027,56.822 332.007,57.020 331.493 C 57.439 330.399,55.692 327.602,54.600 327.618 C 54.380 327.622,54.513 327.807,54.895 328.029 C 55.277 328.252,55.797 328.832,56.049 329.317 C 56.302 329.803,56.366 330.067,56.191 329.903 C 56.016 329.740,55.597 329.830,55.260 330.103 C 54.848 330.437,54.738 330.447,54.926 330.134 C 55.079 329.878,55.005 329.602,54.761 329.520 C 54.216 329.339,53.949 326.800,54.475 326.800 C 55.356 326.800,56.506 327.751,57.052 328.931 L 57.640 330.200 57.388 329.002 C 57.054 327.417,56.582 326.904,55.172 326.594 C 54.069 326.352,53.789 325.854,53.977 324.470 C 54.016 324.179,53.836 323.684,53.575 323.370 C 53.315 323.057,53.276 322.800,53.489 322.800 C 53.702 322.800,53.859 321.990,53.838 321.000 C 53.814 319.847,53.620 319.200,53.300 319.200 C 53.025 319.200,52.800 319.009,52.800 318.776 C 52.800 318.543,53.008 318.481,53.262 318.638 C 53.533 318.806,53.616 318.749,53.461 318.499 C 53.317 318.266,52.794 318.175,52.300 318.297 C 51.805 318.418,51.531 318.376,51.691 318.201 C 51.851 318.027,51.451 317.281,50.803 316.543 C 50.105 315.747,49.721 314.949,49.862 314.584 C 50.012 314.191,49.899 314.010,49.549 314.084 C 48.979 314.204,48.967 314.067,49.395 312.363 C 49.763 310.897,48.801 310.182,47.208 310.737 C 46.226 311.080,46.000 311.050,46.000 310.579 C 46.000 310.261,45.820 310.000,45.600 310.000 C 45.380 310.000,45.200 310.202,45.200 310.449 C 45.200 310.754,45.039 310.770,44.700 310.500 C 43.970 309.919,38.138 309.854,37.786 310.423 C 37.575 310.764,37.416 310.750,37.180 310.368 C 36.936 309.972,36.730 309.960,36.301 310.316 C 35.874 310.670,35.615 310.664,35.212 310.290 C 34.788 309.898,34.720 309.920,34.869 310.400 M48.785 311.382 C 49.552 312.306,48.859 312.977,47.970 312.173 C 47.557 311.799,47.315 311.337,47.433 311.147 C 47.748 310.637,48.238 310.723,48.785 311.382 M56.596 314.796 C 57.226 315.454,57.820 315.914,57.915 315.818 C 58.099 315.634,56.037 313.600,55.667 313.600 C 55.548 313.600,55.966 314.138,56.596 314.796 M50.708 317.925 C 50.948 318.645,50.122 318.494,49.843 317.767 C 49.693 317.377,49.782 317.194,50.075 317.292 C 50.336 317.379,50.621 317.664,50.708 317.925 M31.511 334.794 C 30.746 336.019,32.038 337.210,33.306 336.447 C 34.144 335.944,34.159 335.953,33.545 336.596 C 32.255 337.946,30.025 336.016,31.216 334.581 C 31.913 333.741,32.089 333.868,31.511 334.794 M64.860 340.147 C 65.235 340.877,65.219 340.916,64.749 340.418 C 64.447 340.098,63.930 339.603,63.600 339.317 C 63.078 338.865,63.092 338.830,63.711 339.046 C 64.102 339.183,64.619 339.678,64.860 340.147 M34.425 343.638 C 34.395 344.407,35.641 345.610,36.431 345.575 C 36.744 345.561,36.591 345.385,36.091 345.184 C 35.590 344.983,35.017 344.410,34.816 343.909 C 34.581 343.324,34.442 343.227,34.425 343.638 M79.572 348.570 C 80.381 349.431,80.438 350.425,79.676 350.386 C 79.001 350.350,77.125 348.444,77.373 348.044 C 77.810 347.337,78.589 347.524,79.572 348.570 M26.983 350.772 C 27.109 350.977,27.002 351.275,26.745 351.434 C 26.463 351.608,26.383 351.551,26.544 351.290 C 26.699 351.040,26.429 350.784,25.906 350.683 C 25.007 350.510,25.007 350.509,25.876 350.454 C 26.358 350.425,26.856 350.568,26.983 350.772 M30.856 351.557 C 31.859 352.062,33.137 354.000,32.466 354.000 C 32.292 354.000,31.640 353.469,31.018 352.819 C 30.396 352.169,29.777 351.651,29.643 351.666 C 29.007 351.741,28.776 351.562,29.013 351.179 C 29.156 350.947,29.392 350.818,29.537 350.892 C 29.681 350.965,30.275 351.265,30.856 351.557 M83.573 352.571 C 84.430 353.484,84.447 353.598,83.843 354.460 C 83.489 354.965,83.200 355.248,83.200 355.089 C 83.200 354.349,83.099 354.144,82.334 353.330 C 81.884 352.851,81.636 352.266,81.782 352.030 C 82.181 351.384,82.568 351.501,83.573 352.571 M30.600 353.200 C 30.998 353.640,31.122 354.000,30.876 354.000 C 30.630 354.000,30.235 353.640,30.000 353.200 C 29.765 352.760,29.640 352.400,29.724 352.400 C 29.808 352.400,30.202 352.760,30.600 353.200 M46.201 354.708 C 46.251 355.390,46.130 355.483,45.579 355.189 C 44.511 354.617,44.338 353.729,45.308 353.801 C 45.845 353.840,46.160 354.161,46.201 354.708 M15.200 355.200 C 14.378 356.022,14.134 357.389,14.742 357.764 C 14.930 357.881,15.007 357.571,14.913 357.077 C 14.726 356.098,15.676 355.010,17.000 354.688 C 17.724 354.511,17.715 354.488,16.900 354.446 C 16.405 354.421,15.640 354.760,15.200 355.200 M56.173 364.430 C 55.799 364.843,55.325 365.078,55.120 364.951 C 54.916 364.824,55.054 364.383,55.427 363.970 C 55.801 363.557,56.275 363.322,56.480 363.449 C 56.684 363.576,56.546 364.017,56.173 364.430 M40.390 376.781 C 40.637 377.244,41.011 377.517,41.220 377.388 C 41.772 377.046,41.697 376.880,40.770 376.384 C 40.008 375.976,39.977 376.009,40.390 376.781 " stroke="none" fill="#fc8c8c" fill-rule="evenodd"></path></g></svg>